<svg width="160" height="174" viewBox="0 0 160 174" fill="none" xmlns="http://www.w3.org/2000/svg">
<path d="M151.775 86.1658C151.775 110.04 139.844 131.176 121.513 144.138C109.557 152.595 94.8994 157.574 79.0379 157.574C63.2077 157.574 48.5625 152.613 36.6257 144.187C18.2564 131.225 6.30078 110.059 6.30078 86.1658C6.30078 46.7257 38.8576 14.7515 79.0379 14.7515C119.218 14.7515 151.775 46.7257 151.775 86.1658Z" fill="#E8E8E8"/>
<g opacity="0.81">
<path opacity="0.81" d="M134.265 157.133C118.71 167.744 99.6327 173.997 79.0003 173.997C58.4054 173.997 39.3403 167.769 23.8174 157.195L33.0208 88.1747V70.2949H125.068L125.105 88.1747L134.265 157.133Z" fill="#FF8364"/>
</g>
<path d="M79.0441 14.7575C119.224 14.7575 151.775 46.7317 151.775 86.1718C151.775 106.027 143.524 123.987 130.215 136.912C127.512 139.546 124.604 141.953 121.519 144.144C109.557 152.601 94.8993 157.586 79.0441 157.586C63.2139 157.586 48.5687 152.619 36.6381 144.199C33.5285 142.002 30.6007 139.565 27.8861 136.918C14.5637 123.993 6.31324 106.021 6.31324 86.178C6.30697 46.7317 38.87 14.7575 79.0441 14.7575ZM79.0441 8.55957C35.4595 8.55957 0 43.3774 0 86.1656C0 107.061 8.32571 126.646 23.4474 141.313C26.3877 144.181 29.5914 146.846 32.9518 149.216C46.4434 158.737 62.3801 163.772 79.0441 163.772C95.7268 163.772 111.695 158.719 125.205 149.166C128.591 146.766 131.769 144.119 134.66 141.307C149.762 126.646 158.082 107.061 158.082 86.1718C158.082 43.3774 122.622 8.55957 79.0441 8.55957Z" fill="#333333"/>
<path d="M58.1293 52.2576L36.2305 66.2167V93.4333H57.3331L58.1293 52.2576Z" fill="#E2E2E2"/>
<path d="M57.3333 96.5286H36.2306C34.4878 96.5286 33.0771 95.1438 33.0771 93.4328V66.2162C33.0771 65.1699 33.6163 64.1913 34.5128 63.6189L56.4117 49.6536C57.3897 49.0258 58.6436 48.9889 59.6592 49.5428C60.6811 50.0967 61.3018 51.1615 61.283 52.3063L60.4868 93.482C60.4554 95.1807 59.0511 96.5286 57.3333 96.5286ZM39.3841 90.3369H54.2425L54.8632 58.0303L39.3841 67.9026V90.3369Z" fill="#333333"/>
<path d="M99.958 52.2576L121.857 66.2167V93.4333H100.748L99.958 52.2576Z" fill="#E2E2E2"/>
<path d="M121.857 96.5296H100.748C99.0305 96.5296 97.6261 95.1817 97.5948 93.4891L96.7986 52.3134C96.7735 51.1686 97.4004 50.1038 98.4223 49.5499C99.438 48.996 100.692 49.0329 101.67 49.6607L123.569 63.6259C124.465 64.1983 125.004 65.177 125.004 66.2233V93.4399C125.011 95.1448 123.6 96.5296 121.857 96.5296ZM103.845 90.3378H118.704V67.8974L103.225 58.0251L103.845 90.3378Z" fill="#333333"/>
<path d="M58.2487 85.8003C58.1735 85.8003 58.1045 85.7388 58.1045 85.6649V74.1431C60.1546 34.0383 68.4364 20.4177 78.9125 3.17195C78.9313 3.14118 78.9564 3.10425 79.0379 3.10425C79.1194 3.10425 79.1445 3.14118 79.1633 3.17195C89.6394 20.4239 97.9149 34.0568 99.9775 74.1431V85.6649C99.9775 85.7388 99.9149 85.8003 99.8396 85.8003H58.2487Z" fill="#333333"/>
<path d="M79.0376 9.02296C88.3351 24.5639 94.9618 38.2029 96.8238 74.2086V82.6961H61.2577V74.2086C63.1072 38.1906 69.7402 24.5577 79.0376 9.02296ZM79.0439 0C77.9468 0 76.8496 0.523159 76.2102 1.57563C64.9504 20.1016 56.9946 33.95 54.957 74.0547V85.6565C54.957 87.4414 56.4303 88.894 58.2547 88.894H99.8456C101.664 88.894 103.143 87.4476 103.143 85.6565V74.0547C101.093 33.9561 93.1374 20.1016 81.8839 1.57563C81.2382 0.529314 80.141 0 79.0439 0Z" fill="#333333"/>
<path d="M79.0187 143.134C79.0187 143.134 79.0125 143.134 79.0187 143.134C77.2758 143.134 75.8652 141.743 75.8652 140.032L75.8966 104.876C75.8966 103.165 77.3072 101.78 79.0501 101.78C80.793 101.78 82.2036 103.171 82.2036 104.882L82.1722 140.038C82.166 141.749 80.7553 143.134 79.0187 143.134Z" fill="#333333"/>
<path d="M63.1828 134.74H63.1765C61.4337 134.734 60.023 133.349 60.0293 131.638L60.0607 117.125C60.0669 115.42 61.4775 114.035 63.2142 114.035H63.2204C64.9633 114.042 66.3739 115.426 66.3676 117.137L66.3363 131.65C66.33 133.355 64.9194 134.74 63.1828 134.74Z" fill="#333333"/>
<path d="M94.8557 134.74H94.8494C93.1065 134.734 91.6959 133.349 91.7022 131.638L91.7335 117.125C91.7398 115.42 93.1504 114.035 94.887 114.035H94.8933C96.6362 114.042 98.0468 115.426 98.0405 117.137L98.0092 131.65C98.0029 133.355 96.5923 134.74 94.8557 134.74Z" fill="#333333"/>
</svg>
