<svg width="24" height="24" viewBox="0 0 24 24" fill="none" xmlns="http://www.w3.org/2000/svg">
<g clip-path="url(#clip0_292_28795)">
<path d="M9.49 10.8496L6.86 12.5596V15.8896H9.39L9.49 10.8496Z" fill="white"/>
<path d="M9.39 16.2701H6.86C6.65 16.2701 6.48 16.1001 6.48 15.8901V12.5601C6.48 12.4301 6.54 12.3101 6.65 12.2401L9.28 10.5301C9.4 10.4501 9.55 10.4501 9.67 10.5201C9.79 10.5901 9.87 10.7201 9.86 10.8601L9.76 15.9001C9.77 16.1001 9.6 16.2701 9.39 16.2701ZM7.24 15.5101H9.02L9.09 11.5601L7.23 12.7701V15.5101H7.24Z" fill="#DBDBDB"/>
<path d="M14.51 10.8496L17.14 12.5596V15.8896H14.61L14.51 10.8496Z" fill="white"/>
<path d="M17.14 16.2694H14.61C14.4 16.2694 14.24 16.0994 14.23 15.8994L14.13 10.8594C14.13 10.7194 14.2 10.5894 14.32 10.5194C14.44 10.4494 14.59 10.4594 14.71 10.5294L17.34 12.2394C17.45 12.3094 17.51 12.4294 17.51 12.5594V15.8894C17.52 16.0994 17.35 16.2694 17.14 16.2694ZM14.98 15.5094H16.76V12.7694L14.9 11.5594L14.98 15.5094Z" fill="#DBDBDB"/>
<path d="M12 4.45996C11.87 4.45996 11.74 4.51996 11.66 4.64996C10.31 6.91996 9.35 8.61996 9.11 13.52V14.94C9.11 15.16 9.29 15.34 9.51 15.34H14.5C14.72 15.34 14.9 15.16 14.9 14.94V13.52C14.65 8.61996 13.7 6.91996 12.35 4.65996C12.26 4.52996 12.13 4.45996 12 4.45996Z" fill="#DBDBDB"/>
<path d="M12 3.26977C16.82 3.26977 20.73 7.17977 20.73 11.9998C20.73 14.4298 19.74 16.6198 18.14 18.2098C17.82 18.5298 17.47 18.8298 17.1 19.0898C15.66 20.1198 13.9 20.7298 12 20.7298C10.1 20.7298 8.34 20.1198 6.91 19.0898C6.54 18.8198 6.19 18.5198 5.86 18.1998C4.26 16.6198 3.27 14.4198 3.27 11.9898C3.27 7.17977 7.18 3.26977 12 3.26977ZM12 2.50977C6.77 2.50977 2.51 6.76977 2.51 11.9998C2.51 14.5598 3.51 16.9498 5.32 18.7398C5.67 19.0898 6.06 19.4198 6.46 19.7098C8.08 20.8698 9.99 21.4898 11.99 21.4898C13.99 21.4898 15.91 20.8698 17.53 19.6998C17.94 19.4098 18.32 19.0798 18.66 18.7398C20.47 16.9498 21.47 14.5498 21.47 11.9998C21.49 6.76977 17.23 2.50977 12 2.50977Z" fill="#DBDBDB"/>
</g>
<defs>
<clipPath id="clip0_292_28795">
<rect width="18.98" height="18.98" fill="white" transform="translate(2.51 2.50977)"/>
</clipPath>
</defs>
</svg>
