<svg width="175" height="48" viewBox="0 0 175 48" fill="none" xmlns="http://www.w3.org/2000/svg">
<path d="M41.7381 23.7698C41.7381 30.3559 38.4572 36.1864 33.416 39.7622C30.1282 42.0951 26.0973 43.4686 21.7354 43.4686C17.3821 43.4686 13.3547 42.1001 10.072 39.7757C5.0205 36.2 1.7327 30.361 1.7327 23.7698C1.7327 12.8898 10.6858 4.06934 21.7354 4.06934C32.785 4.06934 41.7381 12.8898 41.7381 23.7698Z" fill="#E8E8E8"/>
<g opacity="0.81">
<path opacity="0.81" d="M36.9228 43.347C32.6453 46.2741 27.399 47.9992 21.725 47.9992C16.0615 47.9992 10.8186 46.2809 6.54975 43.364L9.08069 24.3239V19.3916H34.3935L34.4039 24.3239L36.9228 43.347Z" fill="#999999"/>
</g>
<path d="M21.7371 4.07109C32.7867 4.07109 41.7381 12.8916 41.7381 23.7716C41.7381 29.249 39.4692 34.2034 35.809 37.7689C35.0659 38.4956 34.266 39.1595 33.4177 39.7639C30.1282 42.0968 26.0973 43.4721 21.7371 43.4721C17.3838 43.4721 13.3564 42.1019 10.0755 39.7792C9.22035 39.1731 8.4152 38.5007 7.66868 37.7706C4.00502 34.2051 1.73614 29.2473 1.73614 23.7733C1.73442 12.8916 10.6893 4.07109 21.7371 4.07109ZM21.7371 2.36133C9.75136 2.36133 0 11.9662 0 23.7699C0 29.5342 2.28957 34.9369 6.44804 38.9829C7.25663 39.7741 8.13763 40.5093 9.06173 41.163C12.7719 43.7896 17.1545 45.1785 21.7371 45.1785C26.3249 45.1785 30.7161 43.7845 34.4315 41.1494C35.3625 40.4872 36.2366 39.7571 37.0314 38.9812C41.1847 34.9369 43.4725 29.5342 43.4725 23.7716C43.4725 11.9662 33.7212 2.36133 21.7371 2.36133Z" fill="#333333"/>
<path d="M15.9856 14.416L9.96342 18.2668V25.7748H15.7667L15.9856 14.416Z" fill="#E2E2E2"/>
<path d="M15.7667 26.6286H9.96342C9.48413 26.6286 9.09621 26.2466 9.09621 25.7746V18.2666C9.09621 17.9779 9.24448 17.708 9.49103 17.5501L15.5132 13.6976C15.7822 13.5244 16.127 13.5142 16.4063 13.667C16.6873 13.8198 16.858 14.1136 16.8528 14.4294L16.6339 25.7882C16.6252 26.2568 16.2391 26.6286 15.7667 26.6286ZM10.8306 24.9206H14.9167L15.0874 16.0084L10.8306 18.7318V24.9206Z" fill="#333333"/>
<path d="M27.4886 14.416L33.5108 18.2668V25.7748H27.7059L27.4886 14.416Z" fill="#E2E2E2"/>
<path d="M33.5108 26.6289H27.7059C27.2335 26.6289 26.8473 26.2571 26.8386 25.7901L26.6197 14.4313C26.6128 14.1155 26.7852 13.8218 27.0662 13.669C27.3455 13.5162 27.6903 13.5263 27.9593 13.6995L33.9815 17.552C34.228 17.7099 34.3763 17.9799 34.3763 18.2685V25.7766C34.378 26.2469 33.9901 26.6289 33.5108 26.6289ZM28.5576 24.9208H32.6436V18.7303L28.3869 16.0069L28.5576 24.9208Z" fill="#333333"/>
<path d="M16.0184 23.6692C15.9977 23.6692 15.9787 23.6522 15.9787 23.6318V20.4534C16.5425 9.38999 18.82 5.63258 21.7009 0.875122C21.7061 0.866633 21.713 0.856445 21.7354 0.856445C21.7578 0.856445 21.7647 0.866633 21.7699 0.875122C24.6508 5.63428 26.9266 9.39508 27.4938 20.4534V23.6318C27.4938 23.6522 27.4766 23.6692 27.4559 23.6692H16.0184Z" fill="#333333"/>
<path d="M21.7354 2.48909C24.2922 6.77624 26.1145 10.5387 26.6266 20.4713V22.8127H16.8459V20.4713C17.3545 10.5353 19.1786 6.77454 21.7354 2.48909ZM21.7371 0C21.4354 0 21.1337 0.14432 20.9578 0.434657C17.8614 5.54528 15.6736 9.36551 15.1132 20.4289V23.6294C15.1132 24.1218 15.5184 24.5225 16.0201 24.5225H27.4576C27.9576 24.5225 28.3645 24.1235 28.3645 23.6294V20.4289C27.8007 9.3672 25.6128 5.54528 22.5181 0.434657C22.3405 0.146018 22.0388 0 21.7371 0Z" fill="#333333"/>
<path d="M21.7302 39.4852C21.7302 39.4852 21.7285 39.4852 21.7302 39.4852C21.2509 39.4852 20.863 39.1015 20.863 38.6295L20.8716 28.9312C20.8716 28.4592 21.2596 28.0771 21.7388 28.0771C22.2181 28.0771 22.6061 28.4609 22.6061 28.9329L22.5974 38.6312C22.5957 39.1032 22.2078 39.4852 21.7302 39.4852Z" fill="#333333"/>
<path d="M17.3752 37.1697H17.3735C16.8942 37.168 16.5063 36.786 16.508 36.3139L16.5166 32.3103C16.5183 31.84 16.9063 31.458 17.3838 31.458H17.3856C17.8648 31.4597 18.2528 31.8417 18.251 32.3137L18.2424 36.3173C18.2407 36.7877 17.8528 37.1697 17.3752 37.1697Z" fill="#333333"/>
<path d="M26.0852 37.1697H26.0835C25.6042 37.168 25.2163 36.786 25.218 36.3139L25.2266 32.3103C25.2284 31.84 25.6163 31.458 26.0939 31.458H26.0956C26.5749 31.4597 26.9628 31.8417 26.9611 32.3137L26.9524 36.3173C26.9507 36.7877 26.5628 37.1697 26.0852 37.1697Z" fill="#333333"/>
<path d="M76.0136 15.2515C77.0895 15.7803 77.6275 16.3638 77.6275 17.0021C77.6275 17.2938 77.4907 17.7315 77.2172 18.315L69.6678 33.6326C69.4672 34.0338 69.1572 34.3621 68.7378 34.6173C68.3366 34.8544 67.9172 34.9729 67.4795 34.9729H67.206C66.7501 34.9729 66.3125 34.8544 65.8931 34.6173C65.4919 34.3621 65.191 34.0338 64.9904 33.6326L57.441 18.315C57.1675 17.7315 57.0307 17.2938 57.0307 17.0021C57.0307 16.3638 57.5686 15.7803 58.6445 15.2515C59.2463 14.9415 59.7022 14.7865 60.0122 14.7865C60.3404 14.7865 60.5866 14.8229 60.7507 14.8959C60.9148 14.9688 61.0698 15.0965 61.2157 15.2788C61.3798 15.4976 61.5257 15.7438 61.6533 16.0173C61.7992 16.2726 62.1548 17.0294 62.7201 18.2876C63.2854 19.5276 63.8872 20.8497 64.5254 22.2538C65.1819 23.6579 65.7928 24.9891 66.3581 26.2473C66.9416 27.4873 67.2698 28.1803 67.3428 28.3262L72.8133 16.3456C72.9592 15.9991 73.0869 15.7256 73.1963 15.525C73.5245 15.0326 73.9257 14.7865 74.3998 14.7865C74.8739 14.7865 75.4119 14.9415 76.0136 15.2515Z" fill="#1C1C1C"/>
<path d="M78.2606 22.9923C78.2606 22.5729 78.2697 22.2629 78.2879 22.0623C78.3244 21.8435 78.4065 21.5973 78.5341 21.3238C78.7894 20.8497 79.5006 20.6126 80.6676 20.6126C81.5429 20.6126 82.1629 20.7676 82.5276 21.0776C82.8376 21.3329 83.0018 21.725 83.02 22.2538C83.0382 22.4362 83.0473 22.7006 83.0473 23.0471V32.6206C83.0473 33.04 83.0291 33.3591 82.9926 33.5779C82.9744 33.7785 82.8923 34.0156 82.7465 34.2891C82.5094 34.7632 81.8073 35.0003 80.6403 35.0003C79.4915 35.0003 78.7894 34.7541 78.5341 34.2618C78.4065 33.9882 78.3244 33.7512 78.2879 33.5506C78.2697 33.35 78.2606 33.0309 78.2606 32.5932V22.9923ZM82.7465 17.9321C82.6188 18.1873 82.3818 18.3697 82.0353 18.4791C81.6888 18.5885 81.2238 18.6432 80.6403 18.6432C80.075 18.6432 79.6191 18.5885 79.2726 18.4791C78.9262 18.3697 78.68 18.1782 78.5341 17.9047C78.4065 17.6312 78.3244 17.3941 78.2879 17.1935C78.2697 16.9747 78.2606 16.6556 78.2606 16.2362C78.2606 15.8168 78.2697 15.5068 78.2879 15.3062C78.3244 15.0873 78.4065 14.8503 78.5341 14.595C78.7894 14.1026 79.5006 13.8565 80.6676 13.8565C81.8165 13.8565 82.5094 14.1026 82.7465 14.595C82.8923 14.8685 82.9744 15.1147 82.9926 15.3335C83.0291 15.5341 83.0473 15.8441 83.0473 16.2635C83.0473 16.6829 83.0291 17.0021 82.9926 17.2209C82.9744 17.4215 82.8923 17.6585 82.7465 17.9321Z" fill="#1C1C1C"/>
<path d="M94.8424 20.7494C95.1888 20.8588 95.4715 21.0503 95.6903 21.3238C95.9274 21.5791 96.0459 21.9985 96.0459 22.5821C96.0459 23.1656 95.8727 23.8038 95.5262 24.4968C95.1797 25.1897 94.6783 25.5362 94.0218 25.5362C93.6935 25.5362 93.3744 25.4632 93.0644 25.3173C92.7727 25.1715 92.3806 25.0985 91.8883 25.0985C91.3959 25.0985 90.9309 25.2718 90.4933 25.6182C90.0738 25.9647 89.8641 26.3841 89.8641 26.8765V32.6206C89.8641 33.04 89.8459 33.3591 89.8094 33.5779C89.7912 33.7785 89.7091 34.0156 89.5633 34.2891C89.2897 34.7632 88.5785 35.0003 87.4297 35.0003C86.5544 35.0003 85.9253 34.8453 85.5424 34.5353C85.2506 34.28 85.0865 33.8879 85.05 33.3591C85.05 33.1768 85.05 32.9123 85.05 32.5659V22.965C85.05 22.5456 85.0591 22.2356 85.0774 22.035C85.1138 21.8162 85.1959 21.5791 85.3235 21.3238C85.5788 20.8315 86.29 20.5853 87.4571 20.5853C88.5512 20.5853 89.235 20.795 89.5085 21.2144C89.7091 21.5062 89.8094 21.8071 89.8094 22.1171C89.9006 21.9894 90.0283 21.8344 90.1924 21.6521C90.3747 21.4697 90.7485 21.2235 91.3138 20.9135C91.8791 20.6035 92.3715 20.4485 92.7909 20.4485C93.2285 20.4485 93.5933 20.4759 93.885 20.5306C94.1768 20.5671 94.4959 20.64 94.8424 20.7494Z" fill="#1C1C1C"/>
<path d="M105.739 25.4268L103.961 25.3173V29.0921C103.961 29.5844 104.034 29.94 104.18 30.1588C104.344 30.3776 104.636 30.4871 105.055 30.4871C105.493 30.4871 105.821 30.5053 106.04 30.5418C106.277 30.56 106.523 30.6421 106.778 30.7879C107.198 31.025 107.407 31.6359 107.407 32.6206C107.407 33.7694 107.152 34.4715 106.641 34.7268C106.368 34.8544 106.122 34.9365 105.903 34.9729C105.702 34.9912 105.401 35.0003 105 35.0003C103.104 35.0003 101.663 34.5718 100.679 33.7147C99.6938 32.8576 99.2015 31.4079 99.2015 29.3656V25.3173C98.855 25.3721 98.4812 25.3994 98.08 25.3994C97.6788 25.3994 97.3415 25.2444 97.0679 24.9344C96.8126 24.6244 96.685 24.0956 96.685 23.3479C96.685 22.6003 96.7306 22.0623 96.8218 21.7341C96.9129 21.3876 97.0406 21.1415 97.2047 20.9956C97.4965 20.7585 97.8612 20.64 98.2988 20.64L99.2015 20.7494V17.9321C99.2015 17.5126 99.2106 17.2026 99.2288 17.0021C99.2653 16.8015 99.3565 16.5826 99.5023 16.3456C99.7394 15.8897 100.441 15.6618 101.609 15.6618C102.849 15.6618 103.587 15.9991 103.824 16.6738C103.915 16.9656 103.961 17.4306 103.961 18.0688V20.7494C104.763 20.6765 105.365 20.64 105.766 20.64C106.186 20.64 106.496 20.6582 106.696 20.6947C106.915 20.7129 107.161 20.795 107.435 20.9409C107.909 21.1779 108.146 21.88 108.146 23.0471C108.146 24.1959 107.9 24.8979 107.407 25.1532C107.134 25.2809 106.888 25.3629 106.669 25.3994C106.468 25.4176 106.158 25.4268 105.739 25.4268Z" fill="#1C1C1C"/>
<path d="M115.875 34.9456C114.033 34.9456 112.501 34.2526 111.279 32.8668C110.076 31.4626 109.474 29.7576 109.474 27.7518V22.965C109.474 22.5273 109.483 22.2082 109.501 22.0076C109.538 21.8071 109.62 21.57 109.747 21.2965C110.003 20.8041 110.714 20.5579 111.881 20.5579C113.157 20.5579 113.905 20.9044 114.124 21.5973C114.233 21.8891 114.288 22.3541 114.288 22.9923V27.7791C114.288 28.5268 114.498 29.1103 114.917 29.5297C115.355 29.9491 115.929 30.1588 116.64 30.1588C117.37 30.1588 117.953 29.94 118.391 29.5023C118.847 29.0647 119.075 28.4903 119.075 27.7791V22.9376C119.075 22.5182 119.084 22.2082 119.102 22.0076C119.139 21.7888 119.23 21.5426 119.376 21.2691C119.613 20.795 120.315 20.5579 121.482 20.5579C122.631 20.5579 123.333 20.8041 123.588 21.2965C123.716 21.57 123.789 21.8162 123.807 22.035C123.843 22.2356 123.862 22.5456 123.862 22.965V32.6479C123.862 33.0491 123.843 33.3591 123.807 33.5779C123.789 33.7785 123.707 34.0065 123.561 34.2618C123.287 34.7359 122.585 34.9729 121.455 34.9729C120.342 34.9729 119.658 34.7541 119.403 34.3165C119.221 34.0065 119.13 33.6326 119.13 33.195C119.057 33.3226 118.892 33.505 118.637 33.7421C118.382 33.9791 118.136 34.1797 117.899 34.3438C117.279 34.745 116.604 34.9456 115.875 34.9456Z" fill="#1C1C1C"/>
<path d="M135.234 22.1171C135.344 21.0959 136.064 20.5853 137.395 20.5853C138.106 20.5853 138.635 20.64 138.982 20.7494C139.328 20.8588 139.565 21.0503 139.693 21.3238C139.839 21.5973 139.921 21.8435 139.939 22.0623C139.976 22.2629 139.994 22.5729 139.994 22.9923V32.5659C139.994 32.9853 139.976 33.3044 139.939 33.5232C139.921 33.7238 139.848 33.9609 139.72 34.2344C139.465 34.7085 138.836 34.9456 137.833 34.9456C136.848 34.9456 136.183 34.8271 135.836 34.59C135.508 34.3347 135.316 33.97 135.262 33.4959C134.587 34.4623 133.456 34.9456 131.87 34.9456C130.302 34.9456 128.843 34.2253 127.493 32.7847C126.144 31.3441 125.469 29.6756 125.469 27.7791C125.469 25.8644 126.144 24.1959 127.493 22.7735C128.861 21.3329 130.356 20.6126 131.979 20.6126C132.599 20.6126 133.165 20.7221 133.675 20.9409C134.186 21.1597 134.541 21.3694 134.742 21.57C134.943 21.7523 135.107 21.9347 135.234 22.1171ZM130.256 27.8065C130.256 28.4082 130.493 28.9553 130.967 29.4476C131.441 29.9218 132.016 30.1588 132.691 30.1588C133.365 30.1588 133.921 29.9126 134.359 29.4203C134.815 28.9279 135.043 28.39 135.043 27.8065C135.043 27.2047 134.824 26.6485 134.386 26.1379C133.967 25.6273 133.393 25.3721 132.663 25.3721C131.952 25.3721 131.368 25.6273 130.913 26.1379C130.475 26.6485 130.256 27.2047 130.256 27.8065Z" fill="#1C1C1C"/>
<path d="M141.992 16.2088C141.992 15.7894 142.001 15.4794 142.019 15.2788C142.055 15.06 142.137 14.8138 142.265 14.5403C142.52 14.0479 143.232 13.8018 144.399 13.8018C145.511 13.8018 146.204 14.0479 146.477 14.5403C146.623 14.8138 146.705 15.06 146.724 15.2788C146.76 15.4976 146.778 15.8168 146.778 16.2362V28.9006C146.778 29.5571 146.833 29.9765 146.942 30.1588C147.052 30.3229 147.289 30.405 147.654 30.405C148.037 30.405 148.292 30.4232 148.419 30.4597C148.547 30.4779 148.702 30.5509 148.884 30.6785C149.249 30.9156 149.432 31.5629 149.432 32.6206C149.432 33.7694 149.249 34.4715 148.884 34.7268C148.41 35.055 147.28 35.1097 145.493 34.8909C144.089 34.7085 143.177 34.2435 142.757 33.4959C142.247 32.6023 141.992 31.18 141.992 29.2288V16.2088Z" fill="#1C1C1C"/>
<path d="M150.758 22.9923C150.758 22.5729 150.767 22.2629 150.785 22.0623C150.821 21.8435 150.904 21.5973 151.031 21.3238C151.286 20.8497 151.998 20.6126 153.165 20.6126C154.04 20.6126 154.66 20.7676 155.025 21.0776C155.335 21.3329 155.499 21.725 155.517 22.2538C155.535 22.4362 155.544 22.7006 155.544 23.0471V32.6206C155.544 33.04 155.526 33.3591 155.49 33.5779C155.471 33.7785 155.389 34.0156 155.244 34.2891C155.006 34.7632 154.304 35.0003 153.137 35.0003C151.989 35.0003 151.286 34.7541 151.031 34.2618C150.904 33.9882 150.821 33.7512 150.785 33.5506C150.767 33.35 150.758 33.0309 150.758 32.5932V22.9923ZM155.244 17.9321C155.116 18.1873 154.879 18.3697 154.532 18.4791C154.186 18.5885 153.721 18.6432 153.137 18.6432C152.572 18.6432 152.116 18.5885 151.77 18.4791C151.423 18.3697 151.177 18.1782 151.031 17.9047C150.904 17.6312 150.821 17.3941 150.785 17.1935C150.767 16.9747 150.758 16.6556 150.758 16.2362C150.758 15.8168 150.767 15.5068 150.785 15.3062C150.821 15.0873 150.904 14.8503 151.031 14.595C151.286 14.1026 151.998 13.8565 153.165 13.8565C154.314 13.8565 155.006 14.1026 155.244 14.595C155.389 14.8685 155.471 15.1147 155.49 15.3335C155.526 15.5341 155.544 15.8441 155.544 16.2635C155.544 16.6829 155.526 17.0021 155.49 17.2209C155.471 17.4215 155.389 17.6585 155.244 17.9321Z" fill="#1C1C1C"/>
<path d="M157.137 27.8065C157.137 25.6182 157.903 23.8129 159.434 22.3906C160.966 20.9682 162.717 20.2571 164.686 20.2571C166.656 20.2571 168.397 20.9682 169.911 22.3906C171.424 23.7947 172.181 25.5909 172.181 27.7791C172.181 29.2926 171.789 30.6421 171.005 31.8273C170.221 32.9944 169.263 33.8606 168.133 34.4259C167.02 34.9729 165.862 35.2465 164.659 35.2465C163.455 35.2465 162.288 34.9547 161.158 34.3712C160.027 33.7694 159.07 32.8941 158.286 31.7453C157.52 30.5782 157.137 29.2653 157.137 27.8065ZM162.854 29.7759C163.437 30.2135 164.03 30.4323 164.631 30.4323C165.233 30.4323 165.835 30.2044 166.437 29.7485C167.039 29.2926 167.339 28.6179 167.339 27.7244C167.339 26.8309 167.057 26.1653 166.491 25.7276C165.926 25.29 165.315 25.0712 164.659 25.0712C164.002 25.0712 163.391 25.2991 162.826 25.755C162.261 26.2109 161.978 26.8856 161.978 27.7791C161.978 28.6544 162.27 29.32 162.854 29.7759Z" fill="#1C1C1C"/>
</svg>
