<svg width="159" height="174" viewBox="0 0 159 174" fill="none" xmlns="http://www.w3.org/2000/svg">
<path d="M151.775 86.1665C151.775 110.041 139.844 131.177 121.513 144.139C109.557 152.595 94.8994 157.575 79.0379 157.575C63.2077 157.575 48.5625 152.614 36.6257 144.188C18.2564 131.226 6.30078 110.059 6.30078 86.1665C6.30078 46.7265 38.8576 14.7522 79.0379 14.7522C119.218 14.7522 151.775 46.7265 151.775 86.1665Z" fill="#E8E8E8"/>
<g opacity="0.81">
<path opacity="0.81" d="M134.265 157.134C118.71 167.745 99.6327 173.999 79.0003 173.999C58.4054 173.999 39.3403 167.77 23.8174 157.196L33.0208 88.1759V70.2961H125.068L125.105 88.1759L134.265 157.134Z" fill="#999999"/>
</g>
<path d="M79.0441 14.7565C119.224 14.7565 151.775 46.7308 151.775 86.1708C151.775 106.026 143.524 123.986 130.215 136.911C127.512 139.545 124.604 141.952 121.519 144.143C109.557 152.6 94.8993 157.585 79.0441 157.585C63.2139 157.585 48.5687 152.618 36.6381 144.198C33.5285 142.001 30.6007 139.564 27.8861 136.917C14.5637 123.992 6.31324 106.02 6.31324 86.177C6.30697 46.7308 38.87 14.7565 79.0441 14.7565ZM79.0441 8.55859C35.4595 8.55859 0 43.3764 0 86.1647C0 107.06 8.32571 126.645 23.4474 141.312C26.3877 144.18 29.5914 146.845 32.9518 149.215C46.4434 158.736 62.3801 163.771 79.0441 163.771C95.7268 163.771 111.695 158.718 125.205 149.165C128.591 146.765 131.769 144.118 134.66 141.306C149.762 126.645 158.082 107.06 158.082 86.1708C158.082 43.3764 122.622 8.55859 79.0441 8.55859Z" fill="#333333"/>
<path d="M58.1293 52.2561L36.2305 66.2152V93.4318H57.3331L58.1293 52.2561Z" fill="#E2E2E2"/>
<path d="M57.3333 96.5282H36.2306C34.4878 96.5282 33.0771 95.1433 33.0771 93.4323V66.2157C33.0771 65.1694 33.6163 64.1908 34.5128 63.6184L56.4117 49.6531C57.3897 49.0253 58.6436 48.9884 59.6592 49.5423C60.6811 50.0962 61.3018 51.161 61.283 52.3058L60.4868 93.4815C60.4554 95.1803 59.0511 96.5282 57.3333 96.5282ZM39.3841 90.3364H54.2425L54.8632 58.0298L39.3841 67.9021V90.3364V90.3364Z" fill="#333333"/>
<path d="M99.958 52.2561L121.857 66.2152V93.4318H100.748L99.958 52.2561Z" fill="#E2E2E2"/>
<path d="M121.857 96.5291H100.748C99.0305 96.5291 97.6261 95.1812 97.5948 93.4886L96.7986 52.3129C96.7735 51.1681 97.4004 50.1033 98.4223 49.5494C99.438 48.9955 100.692 49.0324 101.67 49.6602L123.569 63.6255C124.465 64.1979 125.004 65.1765 125.004 66.2228V93.4394C125.011 95.1443 123.6 96.5291 121.857 96.5291ZM103.845 90.3374H118.704V67.8969L103.225 58.0246L103.845 90.3374Z" fill="#333333"/>
<path d="M58.2487 85.7999C58.1735 85.7999 58.1045 85.7383 58.1045 85.6644V74.1426C60.1546 34.0379 68.4364 20.4173 78.9125 3.17146C78.9313 3.14069 78.9564 3.10376 79.0379 3.10376C79.1194 3.10376 79.1445 3.14069 79.1633 3.17146C89.6394 20.4234 97.9149 34.0563 99.9775 74.1426V85.6644C99.9775 85.7383 99.9149 85.7999 99.8396 85.7999H58.2487Z" fill="#333333"/>
<path d="M79.0376 9.02296C88.3351 24.5639 94.9618 38.2029 96.8238 74.2086V82.6961H61.2577V74.2086C63.1072 38.1906 69.7402 24.5577 79.0376 9.02296ZM79.0439 0C77.9468 0 76.8496 0.523159 76.2102 1.57563C64.9504 20.1016 56.9946 33.95 54.957 74.0547V85.6566C54.957 87.4414 56.4303 88.894 58.2547 88.894H99.8456C101.664 88.894 103.143 87.4476 103.143 85.6566V74.0547C101.093 33.9561 93.1374 20.1016 81.8839 1.57563C81.2382 0.529314 80.141 0 79.0439 0Z" fill="#333333"/>
<path d="M79.0187 143.135C79.0187 143.135 79.0125 143.135 79.0187 143.135C77.2758 143.135 75.8652 141.744 75.8652 140.033L75.8966 104.876C75.8966 103.165 77.3072 101.781 79.0501 101.781C80.793 101.781 82.2036 103.172 82.2036 104.883L82.1722 140.039C82.166 141.75 80.7553 143.135 79.0187 143.135Z" fill="#333333"/>
<path d="M63.1828 134.741H63.1765C61.4337 134.735 60.023 133.35 60.0293 131.639L60.0607 117.126C60.0669 115.421 61.4775 114.036 63.2142 114.036H63.2204C64.9633 114.042 66.3739 115.427 66.3676 117.138L66.3363 131.651C66.33 133.356 64.9194 134.741 63.1828 134.741Z" fill="#333333"/>
<path d="M94.8557 134.741H94.8494C93.1065 134.735 91.6959 133.35 91.7022 131.639L91.7335 117.126C91.7398 115.421 93.1504 114.036 94.887 114.036H94.8933C96.6362 114.042 98.0468 115.427 98.0405 117.138L98.0092 131.651C98.0029 133.356 96.5923 134.741 94.8557 134.741Z" fill="#333333"/>
</svg>
